<?xml version="1.0" encoding="UTF-8"?>
<svg id="katman_1" xmlns="http://www.w3.org/2000/svg" version="1.1" viewBox="0 0 995.56 466.36">
  <defs>
    <style>
      .st0 {
        fill: #fbea2e;
      }

      .st1 {
        fill: #010101;
      }
    </style>
  </defs>
  <path class="st0" d="M905.48,122.31L995.56.23s-208.59-1.19-352.59,1.78c-144,2.96-209.19,94.67-209.19,94.67l-81.78,96.44L184,.23H0l280.3,312.3v153.48h149.33v-155.26l107.48-122.52s37.86-45.85,62.44-54.22c53.93-18.37,305.93-11.7,305.93-11.7Z"/>
  <path class="st1" d="M525.33,228.23s-2.47,73.37,60.07,102.61c3.73,1.74,17.25,8.52,21.17,9.77,9.98,3.17,22.65,9.06,92.98,6.73h139.56v-66.81h-235.26l82.07-104.89h298.07v290.37h-333.78s-98.67,10.67-205.33-85.33v-59.68s80.44-92.77,80.44-92.77Z"/>
</svg>
